 <svg version="1.0" xmlns="http://www.w3.org/2000/svg" width="700.000000pt" height="403.000000pt" viewBox="0 0 700.000000 403.000000" preserveAspectRatio="xMidYMid meet">
<metadata>
Created by potrace 1.12, written by Peter Selinger 2001-2015
</metadata>
<g transform="translate(0.000000,403.000000) scale(0.100000,-0.100000)" fill="#000000" stroke="none">
<path d="M1753 3994 c-3 -8 -1 -29 4 -47 7 -25 15 -33 38 -35 17 -2 37 -10 45
-17 8 -7 28 -17 44 -21 16 -4 45 -18 64 -31 19 -13 50 -23 68 -23 23 0 37 -6
44 -19 6 -12 26 -22 50 -26 32 -5 45 -3 66 14 32 25 105 28 148 6 15 -8 42
-15 59 -15 42 0 207 69 207 86 0 8 -2 14 -5 14 -10 0 -141 -53 -149 -61 -18
-16 -108 -10 -128 8 -14 13 -23 14 -41 6 -13 -6 -35 -9 -50 -6 -19 4 -29 0
-33 -11 -6 -17 -84 -24 -84 -7 0 12 126 44 149 38 11 -3 22 1 25 8 2 7 26 18
52 24 67 17 240 26 267 14 61 -27 117 -38 185 -35 81 4 98 18 66 54 -44 49
-65 52 -464 59 -289 5 -389 11 -435 23 -81 21 -184 21 -192 0z"></path>
<path d="M5509 3954 c-19 -10 -29 -25 -34 -51 -4 -21 -11 -46 -16 -55 -16 -30
-84 -66 -155 -83 -64 -15 -71 -14 -153 6 -58 15 -95 30 -114 48 -27 24 -29 25
-41 9 -7 -10 -20 -18 -29 -18 -9 0 -21 -9 -27 -20 -6 -11 -60 -45 -120 -75
-96 -48 -114 -54 -152 -49 -36 5 -50 1 -90 -25 -53 -34 -61 -57 -23 -71 33
-13 42 -36 21 -59 -21 -24 -20 -30 7 -40 24 -9 48 -66 53 -126 1 -16 5 -39 9
-50 6 -20 0 -22 -84 -34 -50 -7 -91 -17 -91 -22 0 -11 66 -4 142 16 39 10 50
10 59 -1 20 -24 -1 -32 -107 -39 -104 -7 -107 -7 -124 15 -18 24 -53 22 -48
-2 3 -14 -255 -24 -685 -27 -187 -1 -218 1 -223 14 -6 14 -8 13 -19 -2 -12
-16 -39 -18 -301 -21 -254 -3 -288 -2 -296 12 -13 22 -45 20 -51 -4 -5 -18
-14 -20 -111 -20 -64 0 -106 4 -106 10 0 6 40 10 101 10 70 0 98 3 93 11 -4 7
-44 10 -118 7 l-111 -3 -3 35 c-2 19 -10 43 -19 52 -8 9 -47 112 -86 230 -66
196 -74 213 -97 216 -14 2 -30 8 -37 14 -8 7 -19 5 -34 -6 -18 -12 -26 -13
-38 -3 -12 9 -13 9 -7 0 9 -16 -8 -17 -34 -3 -29 15 -36 -7 -13 -38 15 -20 31
-28 64 -32 l44 -5 63 -190 c63 -191 70 -230 42 -230 -8 0 -15 -9 -15 -20 0
-15 6 -20 25 -19 25 1 43 -13 34 -28 -3 -5 -20 -14 -37 -22 -46 -19 -123 -91
-152 -141 -20 -33 -95 -210 -95 -222 0 -2 4 -3 9 -3 5 0 23 35 41 78 45 112
68 152 114 200 38 40 102 82 125 82 5 0 12 -14 16 -30 6 -25 -4 -48 -65 -149
-52 -87 -78 -121 -93 -123 -17 -2 -21 -9 -19 -30 3 -28 -46 -116 -73 -131 -8
-4 -15 -16 -15 -25 0 -9 -9 -28 -19 -41 l-18 -24 -32 22 c-17 12 -31 26 -31
31 0 5 16 29 35 55 37 48 38 71 2 61 -12 -3 -27 0 -34 5 -20 17 -32 1 -27 -34
3 -20 -1 -39 -11 -52 -15 -18 -17 -19 -48 -3 -17 9 -50 22 -72 29 -22 6 -45
15 -50 20 -6 4 -74 25 -150 45 -138 37 -142 38 -335 38 -182 1 -203 -1 -315
-28 -66 -16 -145 -39 -176 -52 -31 -13 -60 -24 -65 -24 -15 0 -134 -64 -229
-123 -58 -36 -173 -136 -251 -217 -74 -78 -167 -214 -213 -313 -62 -133 -69
-151 -77 -182 -4 -16 -11 -35 -16 -42 -9 -11 -32 -128 -44 -217 -2 -21 -7 -42
-9 -47 -8 -12 -9 -239 -1 -299 10 -79 63 -284 93 -360 43 -109 64 -151 122
-239 31 -47 62 -95 69 -108 26 -46 228 -240 312 -298 80 -55 216 -129 305
-166 65 -27 275 -77 350 -84 111 -10 277 -11 310 -3 17 5 47 10 68 13 56 7
230 52 285 74 50 20 159 73 230 112 57 31 186 135 261 210 55 55 201 239 201
253 0 4 -40 6 -90 5 l-90 -2 -74 -87 c-207 -244 -499 -395 -833 -433 -290 -32
-639 69 -878 255 -225 176 -395 431 -461 696 -55 220 -54 409 1 628 111 439
472 793 913 895 126 30 386 37 507 15 115 -22 226 -57 233 -74 11 -29 -15 -32
-84 -8 -199 67 -476 74 -679 16 -267 -76 -492 -228 -647 -434 -107 -145 -193
-341 -223 -515 -20 -110 -19 -326 0 -430 98 -512 503 -907 1018 -991 105 -17
321 -12 418 9 187 42 352 114 482 212 76 57 247 227 247 245 0 6 7 17 16 24
44 37 151 260 180 376 13 50 20 64 35 64 26 0 24 -23 -12 -132 -31 -93 -80
-199 -125 -270 l-24 -38 90 0 c55 0 90 -4 90 -10 0 -10 106 -8 360 6 63 4 126
8 140 8 14 1 25 6 25 11 0 6 -18 9 -40 9 -113 -3 -385 -16 -422 -19 -53 -5
-53 0 -12 86 38 79 80 192 88 238 10 56 25 45 50 -37 22 -69 31 -84 90 -142
66 -64 133 -100 189 -100 38 0 24 17 -25 29 -64 16 -98 38 -84 55 15 18 89 38
105 29 31 -18 68 -74 63 -94 -4 -15 0 -23 14 -26 10 -3 19 -13 20 -22 0 -11 3
-9 9 7 10 23 43 32 38 10 -3 -13 3 -18 23 -18 5 0 7 5 3 12 -5 8 -2 9 11 4 25
-9 76 15 70 34 -3 9 9 24 30 38 41 26 46 27 39 7 -9 -24 5 -18 39 17 20 20 27
33 19 36 -6 2 -12 8 -12 14 0 6 7 8 15 5 9 -4 22 5 35 22 24 35 25 41 4 41
-11 0 -14 5 -9 17 3 10 9 30 12 45 6 32 -3 31 210 33 125 1 176 5 187 14 21
17 21 69 0 92 -15 16 -31 17 -183 12 -112 -4 -173 -2 -187 5 -26 14 -51 91
-33 102 9 6 9 15 -2 39 -11 24 -19 31 -34 27 -14 -4 -30 4 -48 24 -42 44 -112
88 -152 96 -26 5 -35 11 -35 26 0 19 -2 18 -21 -6 -17 -21 -24 -24 -35 -15
-10 8 -34 10 -74 6 l-59 -7 -12 35 c-15 39 -24 43 -51 18 -22 -19 -36 -10 -18
12 7 9 10 19 5 23 -4 4 -22 -11 -40 -32 -28 -33 -36 -38 -48 -27 -11 9 -17 9
-22 0 -4 -6 -1 -15 6 -20 11 -6 9 -13 -10 -33 -40 -43 -14 -48 38 -8 65 52
110 70 122 51 14 -23 10 -39 -10 -39 -18 0 -111 -75 -141 -115 -20 -26 -70
-155 -60 -155 4 0 10 7 14 15 12 32 23 12 18 -35 -4 -41 -2 -50 11 -50 9 0 22
9 30 20 8 11 17 17 20 13 16 -15 5 -60 -22 -92 -36 -43 -61 -37 -61 14 0 27
-4 35 -18 35 -26 0 -34 11 -21 27 9 10 8 17 -1 28 -10 12 -10 15 0 15 8 0 11
9 8 24 -3 16 0 27 10 31 8 3 12 12 8 22 -4 9 -1 20 5 24 20 12 1 39 -31 45
-16 4 -30 10 -30 13 0 4 15 25 34 47 21 24 35 53 38 76 2 20 0 34 -5 31 -4 -3
-34 -6 -65 -8 -31 -1 -65 -3 -74 -4 -16 -1 -18 -13 -18 -96 0 -77 -3 -97 -15
-102 -9 -3 -18 -3 -22 0 -3 4 -5 50 -4 103 2 75 -1 95 -11 92 -9 -3 -14 -29
-16 -79 -2 -41 -6 -77 -11 -82 -4 -4 -45 0 -92 8 -46 8 -206 33 -356 55 -150
22 -318 49 -375 59 -77 14 -105 16 -110 8 -16 -25 -6 -35 45 -45 l52 -11 -59
4 c-32 2 -64 9 -69 14 -6 6 -19 11 -29 11 -10 0 -18 7 -18 15 0 8 5 15 10 15
23 0 8 19 -17 22 -37 4 -38 33 -1 33 36 0 44 11 25 33 -11 12 -13 22 -7 32 7
10 10 11 10 3 0 -20 17 -15 23 6 2 11 60 108 128 215 68 108 131 208 140 224
9 15 40 65 69 112 29 47 76 122 103 168 28 45 55 82 60 82 20 0 235 -227 279
-295 97 -151 164 -322 188 -482 16 -108 15 -106 41 -92 19 10 20 13 7 20 -10
5 -18 31 -22 68 -29 258 -196 561 -406 738 -44 37 -80 70 -80 73 0 3 4 11 9
19 11 17 24 9 126 -83 88 -79 199 -224 259 -338 75 -142 136 -344 136 -452 0
-26 5 -46 13 -49 13 -5 124 1 144 8 12 4 9 65 -7 123 -5 19 -7 38 -5 42 5 8
-43 190 -55 205 -4 6 -10 24 -14 40 -9 40 -83 192 -113 231 -13 17 -23 34 -23
38 0 10 -117 161 -172 222 -28 30 -81 77 -119 106 -38 28 -69 55 -69 60 0 14
262 438 270 438 7 0 104 -291 362 -1080 38 -118 77 -223 86 -233 10 -12 27
-17 46 -15 19 2 31 -2 33 -12 4 -13 3 -13 -6 0 -9 13 -11 13 -11 -2 0 -11 -6
-15 -20 -11 -21 6 -29 -20 -10 -32 18 -11 10 -25 -14 -25 -14 0 -27 -4 -31 -9
-9 -15 13 -23 33 -12 24 13 92 2 92 -14 0 -7 7 -16 16 -19 9 -4 13 -13 10 -23
-4 -14 0 -18 19 -18 14 0 25 3 25 8 0 4 -4 7 -10 7 -5 0 -10 10 -10 22 0 12
-7 29 -16 39 -9 10 -19 40 -22 66 -3 26 -11 53 -17 58 -7 6 -19 31 -28 56 -14
42 -13 48 1 63 14 14 14 16 -7 24 -18 6 -30 30 -56 108 -21 61 -30 103 -24
109 13 13 11 23 -7 27 -9 2 -23 27 -34 58 -10 30 -68 210 -130 400 -61 190
-123 380 -137 423 -13 43 -23 84 -20 91 4 10 90 14 404 19 219 4 687 12 1041
18 484 9 646 9 654 1 20 -20 -2 -55 -137 -213 -71 -84 -188 -220 -258 -303
-71 -83 -163 -191 -206 -241 -42 -49 -112 -134 -155 -187 -47 -58 -87 -98
-100 -100 -14 -2 -20 -9 -18 -21 4 -25 -124 -177 -150 -177 -14 0 -18 -5 -14
-16 4 -10 -20 -46 -72 -106 -140 -165 -222 -267 -222 -276 0 -5 19 -25 41 -45
l42 -35 81 97 c45 53 146 175 226 271 79 96 189 226 244 288 56 62 120 139
144 170 24 31 71 88 104 125 33 37 58 71 55 74 -11 10 -39 -7 -44 -27 -3 -11
-9 -20 -14 -20 -12 0 -59 46 -59 58 0 14 68 72 85 72 21 0 27 -17 15 -40 -10
-19 -9 -20 17 -14 53 13 58 25 21 55 -27 23 -31 30 -20 41 10 10 16 10 30 0
33 -24 43 -24 58 -3 8 11 22 21 30 21 16 0 18 18 5 39 -7 11 -15 11 -42 2 -36
-12 -44 -9 -36 14 4 8 18 15 32 15 19 0 25 5 25 23 0 12 4 29 10 37 8 12 10
12 15 -2 4 -10 4 -22 0 -28 -7 -11 21 -50 36 -50 4 0 48 48 96 107 118 144
184 214 194 207 5 -3 7 -10 3 -15 -3 -5 2 -22 12 -37 34 -49 84 -161 78 -174
-2 -7 -23 -21 -45 -31 -21 -11 -45 -24 -52 -31 -6 -6 -25 -20 -42 -30 -69 -44
-178 -143 -255 -231 -97 -112 -217 -309 -245 -405 -4 -14 -11 -30 -16 -35 -9
-13 -59 -196 -64 -240 -27 -217 -28 -317 -4 -465 13 -78 46 -217 59 -245 5
-11 19 -45 31 -75 13 -30 32 -71 43 -90 10 -19 26 -48 34 -65 64 -128 252
-348 358 -419 22 -14 58 -41 82 -59 71 -54 307 -167 381 -182 9 -2 28 -8 43
-14 15 -5 48 -13 74 -16 25 -3 49 -7 53 -9 17 -11 130 -19 251 -19 143 0 213
6 269 23 19 5 37 8 39 5 3 -3 11 0 18 5 6 6 16 10 20 8 19 -5 90 15 137 38 28
13 56 24 62 24 6 0 55 23 109 50 227 115 456 331 574 541 11 20 25 45 31 55 6
11 20 42 32 69 12 28 30 68 41 90 21 44 62 202 73 280 4 28 9 64 12 80 12 80
8 237 -11 368 -8 60 -64 260 -81 293 -8 16 -15 36 -16 44 0 8 -11 33 -24 55
-13 22 -33 60 -44 83 -33 69 -158 234 -225 297 -180 169 -345 272 -537 338
-92 32 -218 64 -284 72 -82 11 -297 13 -361 3 -32 -5 -72 -10 -89 -12 -16 -2
-48 -8 -70 -14 -22 -6 -43 -12 -47 -12 -4 -1 -23 -7 -43 -16 l-35 -14 -15 36
c-18 43 -19 59 -5 85 9 16 7 21 -12 28 -52 20 -63 -30 -22 -102 l25 -46 -45
-22 c-25 -11 -49 -18 -55 -15 -5 4 -13 32 -17 64 -3 31 -11 62 -16 69 -5 6 -6
22 -3 35 4 17 0 29 -14 42 -24 21 -27 49 -8 63 6 6 35 17 62 26 186 56 204 63
375 135 95 40 226 107 253 130 19 16 23 42 7 42 -5 0 -10 -6 -10 -13 0 -21
-332 -187 -373 -187 -6 0 10 22 36 48 26 26 47 53 47 59 0 6 7 13 15 17 8 3
15 1 15 -4 0 -6 -5 -10 -12 -10 -6 0 -9 -2 -6 -6 3 -3 35 11 71 30 37 19 87
38 112 41 42 7 64 25 30 25 -21 0 -19 10 6 37 18 18 20 25 9 38 -14 17 -80 21
-80 5 0 -5 13 -10 29 -10 17 0 32 -4 35 -9 10 -16 -112 -101 -144 -101 -6 0 0
15 13 33 34 45 55 90 50 105 -7 20 26 145 48 181 23 38 117 86 149 76 28 -9
26 -43 -2 -47 -21 -3 -23 -7 -21 -68 2 -36 9 -83 17 -105 15 -40 15 -40 16 57
0 54 4 100 10 103 17 10 20 -17 12 -89 -7 -52 -5 -76 4 -96 19 -37 81 -106 88
-99 4 4 -5 20 -19 37 -47 56 -55 91 -49 204 5 93 3 106 -15 136 -15 23 -28 32
-47 32 -24 0 -26 3 -21 28 4 19 -1 38 -13 57 -13 20 -16 34 -9 46 7 13 2 23
-22 43 -34 29 -42 30 -80 10z m-377 -295 c18 -10 19 -17 13 -72 -9 -94 -46
-280 -57 -294 -5 -7 -7 -17 -4 -22 7 -11 -32 -36 -42 -27 -3 4 3 13 14 22 10
8 -3 4 -31 -9 -107 -53 -167 -77 -175 -72 -13 8 -41 98 -45 146 -3 23 -11 49
-19 58 -20 22 -58 120 -50 132 3 5 60 37 126 70 89 45 129 60 151 56 18 -2 31
1 34 10 6 16 56 17 85 2z m148 -58 c38 -32 45 -44 48 -79 4 -55 -11 -80 -87
-141 -35 -28 -69 -61 -75 -72 -13 -26 -42 -46 -52 -36 -4 3 -2 12 4 20 6 7 11
22 10 32 0 11 9 69 21 128 11 59 21 129 21 154 l0 46 32 -7 c18 -3 53 -24 78
-45z m-1260 -441 c0 -5 -4 -10 -10 -10 -5 0 -10 5 -10 10 0 6 5 10 10 10 6 0
10 -4 10 -10z m40 0 c0 -5 -4 -10 -10 -10 -5 0 -10 5 -10 10 0 6 5 10 10 10 6
0 10 -4 10 -10z m75 0 c3 -5 -1 -10 -9 -10 -9 0 -16 5 -16 10 0 6 4 10 9 10 6
0 13 -4 16 -10z m165 0 c0 -5 -4 -10 -10 -10 -5 0 -10 5 -10 10 0 6 5 10 10
10 6 0 10 -4 10 -10z m75 0 c3 -5 1 -10 -4 -10 -6 0 -11 5 -11 10 0 6 2 10 4
10 3 0 8 -4 11 -10z m180 -390 c3 -5 3 -15 -1 -21 -6 -11 -23 6 -24 24 0 10
18 9 25 -3z m46 -18 c-15 -27 -38 -45 -45 -33 -3 5 6 19 20 30 33 26 38 26 25
3z m1199 -78 c438 -91 779 -373 940 -778 69 -175 101 -399 81 -568 -24 -200
-65 -337 -151 -495 -166 -309 -477 -542 -830 -624 -124 -29 -365 -36 -495 -15
-490 81 -892 449 -1016 931 -40 154 -50 359 -26 500 51 288 157 495 357 696
134 134 280 228 280 180 0 -4 -32 -30 -72 -57 -40 -27 -111 -86 -158 -130
-182 -173 -299 -386 -356 -645 -21 -94 -23 -336 -5 -439 84 -470 435 -850 897
-971 438 -115 873 6 1185 327 162 168 254 330 314 554 23 85 29 132 33 248 7
230 -27 390 -123 587 -198 402 -601 662 -1050 677 -88 3 -117 -14 -38 -22 l48
-5 0 -388 c0 -253 3 -386 10 -384 6 2 11 144 13 391 l2 387 33 -5 c17 -3 55
-8 82 -11 28 -3 66 -12 85 -19 19 -8 61 -21 94 -31 113 -33 346 -157 346 -185
0 -5 5 -10 11 -10 19 0 143 -117 199 -189 83 -106 197 -318 186 -346 -2 -7 1
-19 9 -25 14 -12 37 -100 56 -214 13 -76 7 -287 -11 -376 -20 -105 -63 -226
-117 -330 -84 -161 -220 -317 -362 -418 -78 -54 -105 -63 -115 -36 -13 34
-321 485 -324 475 -3 -9 278 -439 315 -482 12 -15 11 -19 -12 -37 -14 -11 -58
-33 -98 -47 -40 -15 -85 -33 -102 -40 -28 -11 -60 -17 -235 -45 -35 -5 -68 -6
-71 -2 -4 4 -9 27 -11 52 -4 58 -23 50 -23 -10 l0 -45 -80 2 c-101 3 -213 21
-241 39 -11 8 -24 11 -27 8 -10 -10 -159 46 -184 69 -13 11 -23 17 -23 14 0
-12 -112 49 -150 81 l-34 29 104 114 c173 189 243 269 238 274 -5 5 -207 -213
-299 -322 -24 -28 -51 -52 -60 -52 -21 -1 -149 123 -210 204 -152 199 -238
440 -245 685 -4 121 14 287 35 328 5 9 14 40 20 67 18 79 89 224 157 323 54
78 225 249 303 301 53 36 65 41 76 30 12 -13 27 -52 72 -179 8 -25 40 -101 70
-170 30 -69 57 -134 60 -145 11 -34 108 -185 192 -298 99 -133 101 -136 101
-186 0 -22 5 -52 12 -66 7 -17 8 -32 2 -47 -6 -13 -7 -39 -4 -58 l6 -35 8 30
c15 58 12 56 54 40 37 -15 41 -15 75 5 42 25 54 68 36 132 -11 41 -9 54 17
186 4 20 1 23 -18 20 -20 -3 -24 -11 -31 -68 -10 -82 -21 -94 -52 -57 -24 27
-48 39 -26 13 7 -9 8 -17 2 -20 -10 -7 -71 65 -71 84 0 6 -13 23 -30 37 -16
13 -30 30 -30 35 0 6 -27 51 -60 99 -34 49 -76 121 -95 161 -32 67 -155 437
-155 466 0 13 1 14 50 17 49 4 90 22 90 40 0 9 -7 32 -15 52 -12 28 -13 38 -3
44 14 9 115 28 180 34 69 6 98 16 98 31 0 9 -9 12 -27 9 -145 -26 -186 -25
-170 2 6 10 113 31 182 36 79 6 251 -4 325 -19z m-4233 -91 c10 -13 15 -13 27
-4 11 10 33 8 102 -9 48 -11 92 -24 98 -28 6 -5 31 -14 56 -21 71 -20 74 -27
44 -78 -30 -52 -24 -65 42 -88 21 -7 43 -19 47 -27 6 -9 -41 -95 -158 -283
-91 -149 -172 -279 -178 -290 -7 -11 -44 -70 -84 -131 -71 -111 -72 -111 -110
-110 -30 1 -37 -2 -35 -16 4 -24 -17 -33 -32 -12 -16 21 -51 12 -42 -12 10
-25 -24 -64 -83 -94 -94 -47 -127 -101 -119 -194 9 -106 106 -181 248 -193
l70 -6 0 46 c0 43 2 46 36 57 19 7 38 9 41 6 8 -7 -26 -114 -38 -122 -5 -3 -9
-14 -9 -26 0 -37 -32 -90 -62 -100 -15 -6 -28 -16 -28 -24 0 -8 -16 -31 -35
-53 -41 -45 -43 -58 -12 -70 63 -23 216 -23 174 1 -14 8 -14 12 4 42 20 34 18
56 -6 86 -19 23 46 171 98 221 37 35 40 43 43 98 2 60 2 60 -41 96 -24 19 -52
35 -63 35 -10 0 -33 15 -50 34 -21 24 -37 33 -50 29 -23 -6 -39 14 -24 29 7 7
18 6 33 -3 13 -7 76 -21 139 -31 105 -15 168 -32 257 -69 28 -11 34 -11 50 3
17 16 30 15 188 -18 379 -79 340 -67 343 -103 4 -35 29 -51 84 -51 28 0 30 -2
24 -28 -4 -15 -14 -32 -22 -38 -8 -6 -12 -18 -9 -26 6 -16 -71 -179 -116 -244
-16 -24 -27 -49 -24 -55 4 -6 -1 -13 -11 -15 -11 -3 -35 -26 -54 -51 -37 -48
-133 -133 -221 -197 -172 -123 -436 -207 -639 -202 l-65 1 -1 35 c-2 63 -4 70
-14 70 -5 0 -10 -22 -10 -49 0 -28 -3 -52 -7 -54 -21 -13 -288 40 -304 60 -6
7 -20 13 -30 13 -75 0 -290 132 -422 259 -426 410 -485 1081 -136 1551 154
208 393 373 621 431 24 5 61 15 83 20 118 30 370 31 392 2z m3538 -62 c-7 -12
-45 -21 -45 -11 0 12 33 30 42 23 5 -2 6 -8 3 -12z m-3060 -109 c0 -18 -20
-15 -23 4 -3 10 1 15 10 12 7 -3 13 -10 13 -16z m2167 -39 c40 -36 5 -102 -47
-89 -26 7 -43 31 -31 44 4 3 16 1 27 -6 34 -22 56 12 24 38 -8 7 -15 16 -15
21 0 14 22 10 42 -8z m-122 -112 c-15 -29 -12 -36 8 -19 23 21 59 31 67 19 6
-11 -42 -101 -54 -101 -20 0 -20 16 1 31 32 25 13 37 -24 16 -48 -28 -57 -7
-20 51 18 27 37 30 22 3z m-931 -804 c13 -17 2 -31 -14 -17 -8 6 -27 5 -56 -3
-36 -11 -44 -17 -44 -37 0 -29 -35 -40 -54 -17 -21 26 54 70 150 86 4 1 12 -5
18 -12z m123 -9 c40 -12 67 -41 48 -53 -6 -4 -6 -15 1 -32 13 -34 7 -37 -22
-15 -31 25 -95 45 -120 39 -27 -7 -24 12 8 45 30 32 32 32 85 16z m-152 -46
c0 -5 -6 -17 -14 -28 -9 -12 -11 -23 -5 -30 6 -8 3 -13 -12 -17 -15 -4 -19 -2
-15 9 3 8 1 14 -4 14 -6 0 -10 9 -10 20 0 13 7 20 20 20 11 0 20 5 20 10 0 6
5 10 10 10 6 0 10 -4 10 -8z m293 -38 c15 -14 38 -46 53 -71 35 -60 23 -72
-47 -49 -38 12 -54 13 -60 5 -5 -8 -8 -7 -12 2 -4 10 -6 8 -6 -4 -1 -22 -21
-12 -21 10 0 10 6 14 19 10 15 -3 21 1 23 17 2 11 13 25 26 31 27 12 28 31 2
47 -11 7 -20 16 -20 20 0 15 18 8 43 -18z m-2069 -28 c49 -43 50 -44 33 -69
-10 -15 -19 -56 -22 -97 -5 -66 -3 -74 20 -102 45 -53 33 -61 -60 -42 -56 12
-77 22 -107 51 -46 45 -62 91 -54 151 7 54 43 105 94 132 20 10 39 19 42 19 3
0 27 -19 54 -43z m1881 22 c25 -7 45 -15 45 -18 0 -9 -69 -74 -74 -69 -2 2
-13 25 -24 52 -24 53 -22 55 53 35z m-229 -8 c21 0 17 -28 -6 -35 -23 -7 -56
-58 -65 -100 l-6 -30 17 34 c21 39 86 111 101 111 17 0 31 -22 38 -62 l7 -38
-61 0 c-59 0 -62 -1 -75 -30 l-12 -30 -21 22 c-11 13 -18 29 -15 37 3 10 0 12
-12 8 -39 -15 -32 53 9 97 21 23 32 27 57 22 17 -3 37 -6 44 -6z m322 -38 c2
-7 -3 -12 -12 -12 -9 0 -16 7 -16 16 0 17 22 14 28 -4z m-1800 -39 c5 -18 -23
-16 -39 3 -11 14 -10 15 11 12 13 -1 25 -9 28 -15z m-88 -33 c0 -10 -6 -20
-12 -23 -21 -7 -38 4 -38 23 0 10 6 20 13 23 20 7 37 -4 37 -23z m823 15 c-3
-9 -8 -14 -10 -11 -3 3 -2 9 2 15 9 16 15 13 8 -4z m47 -5 c0 -5 -7 -10 -15
-10 -8 0 -15 5 -15 10 0 6 7 10 15 10 8 0 15 -4 15 -10z m1095 -55 c0 -14 -6
-19 -20 -17 -44 6 -49 12 -29 27 25 19 49 14 49 -10z m71 1 c24 -18 17 -26
-18 -19 -16 3 -28 12 -28 19 0 18 21 18 46 0z m-938 -38 c-3 -7 -13 -13 -23
-13 -10 0 -20 6 -22 13 -3 7 5 12 22 12 17 0 25 -5 23 -12z m408 -45 c-10 -10
-19 5 -10 18 6 11 8 11 12 0 2 -7 1 -15 -2 -18z m959 2 c0 -22 -31 -33 -47
-17 -17 17 -1 44 24 40 15 -2 23 -10 23 -23z m-2445 -15 c0 -5 -4 -10 -10 -10
-5 0 -10 5 -10 10 0 6 5 10 10 10 6 0 10 -4 10 -10z m180 0 c0 -5 -5 -10 -11
-10 -5 0 -7 5 -4 10 3 6 8 10 11 10 2 0 4 -4 4 -10z m1453 -40 c17 -16 18 -22
6 -74 -20 -91 -42 -94 -112 -17 -72 80 -57 127 38 115 27 -4 58 -14 68 -24z
m322 -9 c11 -19 -33 -33 -57 -19 -22 12 -22 13 12 19 19 3 36 7 37 8 1 0 4 -3
8 -8z m65 0 c0 -11 -39 -25 -47 -18 -3 3 -2 10 2 16 8 13 45 15 45 2z m-539
-52 c7 -18 31 -49 53 -70 22 -21 37 -41 34 -45 -3 -3 -27 -6 -53 -7 -41 -2
-50 2 -76 31 -34 38 -35 47 -9 90 25 40 34 40 51 1z m344 -2 c64 -42 66 -64 5
-94 -53 -27 -128 -31 -137 -7 -7 20 14 94 35 117 22 24 40 21 97 -16z m84 4
c9 -6 10 -10 2 -16 -16 -9 -44 2 -36 15 8 12 16 12 34 1z m127 -6 c6 -16 -43
-100 -76 -130 -32 -29 -50 -13 -50 43 0 52 10 67 59 89 37 16 61 16 67 -2z
m-371 -75 c3 -5 4 -14 0 -20 -8 -13 -35 -1 -35 16 0 16 26 19 35 4z m220 -69
c-8 -46 -40 -71 -94 -71 -42 0 -97 72 -58 76 6 0 26 2 43 2 17 1 46 13 65 26
42 29 53 20 44 -33z"></path>
<path d="M5014 3550 c-30 -64 -94 -138 -164 -192 -30 -22 -31 -26 -11 -21 13
3 55 36 93 72 72 67 122 146 116 184 -2 16 -11 5 -34 -43z"></path>
<path d="M5390 2535 c0 -8 5 -15 10 -15 6 0 10 7 10 15 0 8 -4 15 -10 15 -5 0
-10 -7 -10 -15z"></path>
<path d="M5837 2503 c-6 -34 -3 -52 7 -42 10 10 17 79 8 79 -5 0 -12 -17 -15
-37z"></path>
<path d="M5400 2410 c0 -16 5 -30 10 -30 6 0 10 14 10 30 0 17 -4 30 -10 30
-5 0 -10 -13 -10 -30z"></path>
<path d="M5820 2425 c0 -8 5 -15 10 -15 6 0 10 7 10 15 0 8 -4 15 -10 15 -5 0
-10 -7 -10 -15z"></path>
<path d="M6026 2423 c-6 -14 -5 -15 5 -6 7 7 10 15 7 18 -3 3 -9 -2 -12 -12z"></path>
<path d="M5200 2404 c0 -19 24 -84 32 -84 11 0 10 5 -4 51 -6 22 -15 39 -20
39 -4 0 -8 -3 -8 -6z"></path>
<path d="M5990 2360 c-6 -11 -8 -20 -6 -20 3 0 10 9 16 20 6 11 8 20 6 20 -3
0 -10 -9 -16 -20z"></path>
<path d="M4940 2145 c90 -90 166 -162 169 -159 7 6 -311 324 -324 324 -5 0 64
-74 155 -165z"></path>
<path d="M6200 2295 c-7 -9 -11 -18 -8 -20 3 -3 11 1 18 10 7 9 11 18 8 20 -3
3 -11 -1 -18 -10z"></path>
<path d="M5410 2260 c0 -22 5 -40 10 -40 6 0 10 18 10 40 0 22 -4 40 -10 40
-5 0 -10 -18 -10 -40z"></path>
<path d="M5790 2260 c0 -5 5 -10 10 -10 6 0 10 5 10 10 0 6 -4 10 -10 10 -5 0
-10 -4 -10 -10z"></path>
<path d="M5920 2240 c-6 -11 -8 -20 -6 -20 3 0 10 9 16 20 6 11 8 20 6 20 -3
0 -10 -9 -16 -20z"></path>
<path d="M6130 2215 c-7 -9 -11 -18 -8 -20 3 -3 11 1 18 10 7 9 11 18 8 20 -3
3 -11 -1 -18 -10z"></path>
<path d="M5775 2183 c-3 -21 -9 -48 -12 -60 -3 -13 -1 -23 5 -23 5 0 13 17 17
38 3 20 9 47 12 60 3 12 1 22 -5 22 -5 0 -13 -17 -17 -37z"></path>
<path d="M5264 2173 c3 -10 10 -39 17 -65 6 -27 15 -48 20 -48 12 0 12 5 -7
72 -9 32 -21 58 -26 58 -5 0 -7 -8 -4 -17z"></path>
<path d="M5420 2145 c0 -19 5 -35 10 -35 6 0 10 16 10 35 0 19 -4 35 -10 35
-5 0 -10 -16 -10 -35z"></path>
<path d="M6340 2125 c-13 -14 -21 -27 -18 -30 2 -3 17 9 33 25 16 17 24 30 19
30 -6 0 -21 -11 -34 -25z"></path>
<path d="M6235 2020 c-27 -27 -45 -50 -39 -50 5 0 32 23 59 50 27 28 45 50 39
50 -5 0 -32 -22 -59 -50z"></path>
<path d="M4730 2045 c0 -9 64 -64 74 -65 6 0 -5 16 -24 35 -31 32 -50 43 -50
30z"></path>
<path d="M5740 2020 c0 -5 5 -10 10 -10 6 0 10 5 10 10 0 6 -4 10 -10 10 -5 0
-10 -4 -10 -10z"></path>
<path d="M5430 2005 c0 -8 5 -15 10 -15 6 0 10 7 10 15 0 8 -4 15 -10 15 -5 0
-10 -7 -10 -15z"></path>
<path d="M5310 2000 c0 -5 5 -10 10 -10 6 0 10 5 10 10 0 6 -4 10 -10 10 -5 0
-10 -4 -10 -10z"></path>
<path d="M5947 2003 c-4 -3 -7 -11 -7 -17 0 -6 5 -5 12 2 6 6 9 14 7 17 -3 3
-9 2 -12 -2z"></path>
<path d="M5269 1985 c17 -33 31 -51 31 -40 0 6 -10 21 -21 35 -13 17 -17 18
-10 5z"></path>
<path d="M5744 1959 c-17 -23 -36 -77 -32 -91 3 -7 15 9 27 36 22 50 24 80 5
55z"></path>
<path d="M4845 1940 c10 -11 23 -20 28 -20 6 0 2 9 -8 20 -10 11 -23 20 -28
20 -6 0 -2 -9 8 -20z"></path>
<path d="M5905 1950 c-3 -5 -1 -10 4 -10 6 0 11 5 11 10 0 6 -2 10 -4 10 -3 0
-8 -4 -11 -10z"></path>
<path d="M6420 1924 c-69 -55 -64 -60 7 -8 17 13 36 24 42 24 5 0 13 5 16 10
13 22 -22 7 -65 -26z"></path>
<path d="M5329 1898 c16 -41 42 -87 52 -93 13 -9 11 8 -5 30 -7 11 -17 35 -21
53 -3 17 -13 32 -21 32 -10 0 -11 -6 -5 -22z"></path>
<path d="M4920 1875 c7 -8 17 -15 22 -15 6 0 5 7 -2 15 -7 8 -17 15 -22 15 -6
0 -5 -7 2 -15z"></path>
<path d="M5830 1865 c-7 -9 -11 -17 -9 -20 3 -2 10 5 17 15 14 24 10 26 -8 5z"></path>
<path d="M5440 1850 c0 -5 5 -10 10 -10 6 0 10 5 10 10 0 6 -4 10 -10 10 -5 0
-10 -4 -10 -10z"></path>
<path d="M6295 1835 c-39 -32 -28 -32 15 0 19 14 30 25 24 25 -5 0 -22 -11
-39 -25z"></path>
<path d="M4690 1836 c0 -2 7 -7 16 -10 8 -3 12 -2 9 4 -6 10 -25 14 -25 6z"></path>
<path d="M4970 1830 c0 -5 5 -10 11 -10 5 0 7 5 4 10 -3 6 -8 10 -11 10 -2 0
-4 -4 -4 -10z"></path>
<path d="M5610 1810 c0 -11 5 -20 10 -20 6 0 10 9 10 20 0 11 -4 20 -10 20 -5
0 -10 -9 -10 -20z"></path>
<path d="M5665 1809 c-4 -6 -5 -12 -2 -15 2 -3 7 2 10 11 7 17 1 20 -8 4z"></path>
<path d="M5700 1805 c0 -8 5 -15 10 -15 6 0 10 7 10 15 0 8 -4 15 -10 15 -5 0
-10 -7 -10 -15z"></path>
<path d="M5758 1783 c-29 -34 -30 -48 -2 -21 15 15 26 30 23 33 -3 3 -13 -3
-21 -12z"></path>
<path d="M5075 1735 c33 -30 65 -54 70 -54 6 0 -17 24 -50 54 -33 30 -64 54
-70 54 -5 0 17 -24 50 -54z"></path>
<path d="M6205 1780 c-3 -5 1 -10 9 -10 8 0 18 5 21 10 3 6 -1 10 -9 10 -8 0
-18 -4 -21 -10z"></path>
<path d="M6478 1777 c-21 -6 -38 -14 -38 -19 0 -10 2 -10 56 3 24 6 44 15 44
20 0 11 -13 10 -62 -4z"></path>
<path d="M4837 1759 c7 -7 15 -10 18 -7 3 3 -2 9 -12 12 -14 6 -15 5 -6 -5z"></path>
<path d="M5617 1743 c-3 -16 -3 -30 -1 -33 7 -7 24 23 24 43 0 27 -17 20 -23
-10z"></path>
<path d="M5690 1760 c0 -5 5 -10 10 -10 6 0 10 5 10 10 0 6 -4 10 -10 10 -5 0
-10 -4 -10 -10z"></path>
<path d="M5432 1735 c11 -25 28 -34 28 -16 0 9 -28 41 -35 41 -3 0 1 -11 7
-25z"></path>
<path d="M6400 1750 c0 -5 5 -10 10 -10 6 0 10 5 10 10 0 6 -4 10 -10 10 -5 0
-10 -4 -10 -10z"></path>
<path d="M5691 1722 c-19 -35 -13 -48 11 -24 16 16 19 25 11 33 -8 8 -14 6
-22 -9z"></path>
<path d="M4500 1723 c0 -6 26 -15 58 -22 31 -7 65 -15 75 -17 9 -3 17 -1 17 4
0 6 -24 15 -52 22 -29 6 -63 13 -75 16 -13 4 -23 2 -23 -3z"></path>
<path d="M5920 1715 c-20 -24 -6 -28 15 -5 10 11 13 20 8 20 -6 0 -16 -7 -23
-15z"></path>
<path d="M6248 1718 c-21 -6 -38 -14 -38 -20 0 -5 8 -7 18 -4 9 3 29 8 45 12
15 3 27 10 27 15 0 10 -2 10 -52 -3z"></path>
<path d="M4927 1709 c7 -7 15 -10 18 -7 3 3 -2 9 -12 12 -14 6 -15 5 -6 -5z"></path>
<path d="M4680 1680 c0 -5 5 -10 10 -10 6 0 10 5 10 10 0 6 -4 10 -10 10 -5 0
-10 -4 -10 -10z"></path>
<path d="M6021 1660 c-19 -11 -39 -24 -45 -30 -15 -15 11 -13 42 4 15 8 35 17
45 20 19 6 23 26 5 25 -7 0 -28 -9 -47 -19z"></path>
<path d="M4830 1650 c0 -5 5 -10 10 -10 6 0 10 5 10 10 0 6 -4 10 -10 10 -5 0
-10 -4 -10 -10z"></path>
<path d="M5190 1635 c13 -14 28 -25 33 -25 6 0 0 11 -13 25 -13 14 -28 25 -33
25 -6 0 0 -11 13 -25z"></path>
<path d="M4870 1642 c0 -6 17 -13 38 -16 20 -4 45 -9 55 -12 9 -3 17 -1 17 5
0 11 -15 16 -72 26 -22 3 -38 2 -38 -3z"></path>
<path d="M5562 1638 c-14 -14 -16 -42 -3 -34 7 5 23 46 17 46 -1 0 -7 -5 -14
-12z"></path>
<path d="M5918 1633 c-10 -2 -18 -9 -18 -15 0 -5 7 -7 16 -4 9 3 20 6 25 6 5
0 9 5 9 10 0 10 -3 11 -32 3z"></path>
<path d="M5798 1604 c-23 -12 -38 -34 -25 -34 13 0 67 33 67 41 0 12 -10 11
-42 -7z"></path>
<path d="M5104 1595 c11 -8 28 -15 37 -15 10 0 21 -4 24 -10 8 -12 35 -13 35
-1 0 9 -78 41 -100 41 -11 -1 -10 -4 4 -15z"></path>
<path d="M6570 1580 c0 -5 11 -10 25 -10 14 0 25 5 25 10 0 6 -11 10 -25 10
-14 0 -25 -4 -25 -10z"></path>
<path d="M5260 1570 c0 -6 8 -14 18 -17 9 -4 23 -13 31 -20 7 -8 16 -12 18 -9
6 6 -48 55 -59 56 -5 0 -8 -5 -8 -10z"></path>
<path d="M5688 1573 c-30 -8 -20 -24 10 -17 34 8 53 24 27 23 -11 -1 -28 -3
-37 -6z"></path>
<path d="M5895 1570 c-3 -5 1 -10 9 -10 8 0 18 5 21 10 3 6 -1 10 -9 10 -8 0
-18 -4 -21 -10z"></path>
<path d="M6420 1570 c0 -5 23 -10 50 -10 28 0 50 5 50 10 0 6 -22 10 -50 10
-27 0 -50 -4 -50 -10z"></path>
<path d="M6310 1560 c0 -5 20 -10 45 -10 25 0 45 5 45 10 0 6 -20 10 -45 10
-25 0 -45 -4 -45 -10z"></path>
<path d="M6240 1550 c0 -5 7 -10 15 -10 8 0 15 5 15 10 0 6 -7 10 -15 10 -8 0
-15 -4 -15 -10z"></path>
<path d="M5715 1525 c-16 -13 -26 -27 -23 -30 8 -9 55 22 62 41 8 20 -5 17
-39 -11z"></path>
<path d="M5218 1533 c7 -3 16 -2 19 1 4 3 -2 6 -13 5 -11 0 -14 -3 -6 -6z"></path>
<path d="M5350 1530 c-12 -8 -9 -10 13 -10 15 0 27 5 27 10 0 13 -20 13 -40 0z"></path>
<path d="M5823 1527 c-17 -7 -35 -15 -39 -19 -15 -16 32 -7 66 12 39 21 23 25
-27 7z"></path>
<path d="M5950 1530 c0 -5 7 -10 15 -10 8 0 15 5 15 10 0 6 -7 10 -15 10 -8 0
-15 -4 -15 -10z"></path>
<path d="M4760 1520 c0 -6 67 -10 180 -10 113 0 180 4 180 10 0 6 -67 10 -180
10 -113 0 -180 -4 -180 -10z"></path>
<path d="M5150 1520 c0 -5 5 -10 10 -10 6 0 10 5 10 10 0 6 -4 10 -10 10 -5 0
-10 -4 -10 -10z"></path>
<path d="M5260 1521 c0 -10 30 -24 37 -17 3 3 2 9 -2 15 -8 13 -35 15 -35 2z"></path>
<path d="M5370 1466 c0 -9 6 -16 14 -16 31 0 28 -24 -5 -51 -19 -15 -30 -31
-26 -35 8 -9 77 54 77 71 0 6 -13 19 -30 28 -26 16 -30 16 -30 3z"></path>
<path d="M5750 1470 c-9 -6 -10 -10 -3 -10 6 0 15 5 18 10 8 12 4 12 -15 0z"></path>
<path d="M5695 1440 c3 -5 13 -10 21 -10 8 0 14 5 14 10 0 6 -9 10 -21 10 -11
0 -17 -4 -14 -10z"></path>
<path d="M5700 1382 c0 -11 49 -26 58 -17 8 7 0 12 -31 20 -16 4 -27 3 -27 -3z"></path>
<path d="M5819 1370 c27 -13 48 -17 54 -11 12 12 -2 19 -54 26 l-44 5 44 -20z"></path>
<path d="M5920 1373 c0 -6 93 -12 248 -16 358 -10 542 -9 542 3 0 6 -43 10
-108 10 -60 0 -238 3 -395 7 -189 4 -287 3 -287 -4z"></path>
<path d="M5284 1338 c-2 -3 3 -8 13 -10 15 -3 16 -4 0 -20 -26 -26 -20 -32 9
-9 15 12 39 21 55 21 31 0 59 9 59 19 0 8 -131 8 -136 -1z"></path>
<path d="M5776 1327 c3 -9 22 -29 42 -44 21 -15 115 -95 211 -178 286 -246
428 -365 437 -365 11 0 -3 12 -191 175 -82 71 -203 176 -268 232 -65 57 -122
103 -127 103 -5 0 -12 9 -15 21 -4 11 -16 24 -28 29 -12 6 -32 17 -45 26 -20
15 -22 15 -16 1z"></path>
<path d="M5900 1325 c6 -7 20 -15 31 -18 16 -4 18 -3 9 8 -6 7 -20 15 -31 18
-16 4 -18 3 -9 -8z"></path>
<path d="M5090 1320 c0 -5 7 -10 15 -10 8 0 15 5 15 10 0 6 -7 10 -15 10 -8 0
-15 -4 -15 -10z"></path>
<path d="M5650 1315 c0 -8 -4 -15 -9 -15 -16 0 -21 -30 -9 -56 6 -13 17 -23
24 -20 6 2 20 -11 30 -30 10 -19 25 -34 32 -34 12 0 11 5 -2 23 -9 12 -19 29
-22 39 -3 9 -14 18 -25 21 -23 6 -25 39 -4 60 13 13 13 16 0 21 -9 3 -15 0
-15 -9z"></path>
<path d="M5690 1320 c0 -5 7 -10 15 -10 8 0 15 5 15 10 0 6 -7 10 -15 10 -8 0
-15 -4 -15 -10z"></path>
<path d="M4860 1310 c0 -5 18 -10 40 -10 22 0 40 5 40 10 0 6 -18 10 -40 10
-22 0 -40 -4 -40 -10z"></path>
<path d="M4650 1300 c0 -5 18 -10 40 -10 22 0 40 5 40 10 0 6 -18 10 -40 10
-22 0 -40 -4 -40 -10z"></path>
<path d="M4450 1290 c0 -6 30 -10 70 -10 40 0 70 4 70 10 0 6 -30 10 -70 10
-40 0 -70 -4 -70 -10z"></path>
<path d="M5200 1285 c-10 -12 -10 -15 3 -15 19 0 31 16 18 24 -5 3 -14 -1 -21
-9z"></path>
<path d="M5540 1296 c0 -2 13 -18 29 -35 16 -17 44 -60 62 -95 18 -35 36 -63
40 -60 3 2 28 -35 54 -81 26 -47 51 -85 56 -85 13 0 12 1 -19 61 -15 30 -42
69 -60 88 -18 19 -36 47 -39 63 -3 16 -13 33 -23 38 -10 5 -32 32 -50 60 -27
42 -50 63 -50 46z"></path>
<path d="M5960 1286 c0 -15 29 -36 49 -36 21 0 10 20 -19 35 -26 14 -30 14
-30 1z"></path>
<path d="M5517 1274 c-4 -4 -7 -14 -7 -23 0 -11 3 -12 11 -4 6 6 10 16 7 23
-2 6 -7 8 -11 4z"></path>
<path d="M5136 1255 c-19 -15 -19 -15 1 -15 11 0 26 7 33 15 17 20 -7 20 -34
0z"></path>
<path d="M5185 1200 c-32 -33 -57 -62 -54 -64 3 -3 34 24 69 59 36 36 60 65
54 65 -5 0 -36 -27 -69 -60z"></path>
<path d="M6040 1251 c0 -10 35 -34 65 -44 12 -5 7 4 -15 23 -36 30 -50 36 -50
21z"></path>
<path d="M5018 1233 c-10 -2 -18 -9 -18 -15 0 -5 7 -7 16 -4 9 3 20 6 25 6 5
0 9 5 9 10 0 10 -3 11 -32 3z"></path>
<path d="M5430 1220 c0 -5 5 -10 10 -10 6 0 10 5 10 10 0 6 -4 10 -10 10 -5 0
-10 -4 -10 -10z"></path>
<path d="M6250 1210 c0 -5 7 -10 15 -10 8 0 15 5 15 10 0 6 -7 10 -15 10 -8 0
-15 -4 -15 -10z"></path>
<path d="M5064 1194 c-18 -14 -18 -15 4 -4 12 6 22 13 22 15 0 8 -5 6 -26 -11z"></path>
<path d="M5466 1180 c-8 -45 -8 -62 3 -56 12 8 19 63 11 77 -4 6 -10 -4 -14
-21z"></path>
<path d="M5413 1163 c-7 -15 -13 -32 -13 -37 1 -16 40 34 40 50 0 23 -14 16
-27 -13z"></path>
<path d="M6175 1166 c17 -14 38 -28 48 -32 11 -3 38 -19 61 -35 24 -15 56 -33
72 -39 70 -27 -19 32 -161 105 l-50 26 30 -25z"></path>
<path d="M6470 1170 c0 -5 5 -10 10 -10 6 0 10 5 10 10 0 6 -4 10 -10 10 -5 0
-10 -4 -10 -10z"></path>
<path d="M6530 1160 c0 -5 5 -10 10 -10 6 0 10 5 10 10 0 6 -4 10 -10 10 -5 0
-10 -4 -10 -10z"></path>
<path d="M4750 1150 c0 -5 5 -10 10 -10 6 0 10 5 10 10 0 6 -4 10 -10 10 -5 0
-10 -4 -10 -10z"></path>
<path d="M6570 1152 c0 -11 69 -26 78 -18 8 9 1 13 -40 20 -22 4 -38 3 -38 -2z"></path>
<path d="M4710 1140 c0 -5 5 -10 10 -10 6 0 10 5 10 10 0 6 -4 10 -10 10 -5 0
-10 -4 -10 -10z"></path>
<path d="M5748 1135 c14 -26 560 -571 566 -565 4 5 -481 499 -549 560 -23 21
-26 21 -17 5z"></path>
<path d="M5075 1089 c-11 -17 1 -21 15 -4 8 9 8 15 2 15 -6 0 -14 -5 -17 -11z"></path>
<path d="M5345 1080 c-10 -11 -16 -22 -13 -25 3 -3 13 4 23 15 10 11 16 22 13
25 -3 3 -13 -4 -23 -15z"></path>
<path d="M4495 1080 c-3 -5 3 -10 14 -10 11 0 23 5 26 10 3 6 -3 10 -14 10
-11 0 -23 -4 -26 -10z"></path>
<path d="M4862 1066 c-44 -31 -55 -45 -17 -21 52 32 70 45 60 45 -6 -1 -25
-11 -43 -24z"></path>
<path d="M5407 1083 c-4 -3 -7 -16 -7 -27 1 -21 1 -21 15 -2 8 11 15 23 15 28
0 10 -14 11 -23 1z"></path>
<path d="M5460 1050 c0 -5 5 -10 10 -10 6 0 10 5 10 10 0 6 -4 10 -10 10 -5 0
-10 -4 -10 -10z"></path>
<path d="M5650 1020 c0 -22 5 -40 10 -40 6 0 10 18 10 40 0 22 -4 40 -10 40
-5 0 -10 -18 -10 -40z"></path>
<path d="M6415 1025 c28 -23 85 -50 85 -40 0 7 -72 50 -95 58 -14 5 -11 -1 10
-18z"></path>
<path d="M4784 1014 c-18 -14 -18 -15 4 -4 12 6 22 13 22 15 0 8 -5 6 -26 -11z"></path>
<path d="M5248 975 c-27 -29 -48 -57 -48 -61 0 -11 89 76 101 99 18 33 -6 16
-53 -38z"></path>
<path d="M5382 1013 c-15 -27 -16 -83 -1 -83 6 0 8 9 4 20 -4 12 -1 27 5 35 6
8 10 22 8 32 -3 16 -5 16 -16 -4z"></path>
<path d="M4990 999 c0 -5 5 -7 10 -4 6 3 10 8 10 11 0 2 -4 4 -10 4 -5 0 -10
-5 -10 -11z"></path>
<path d="M4678 950 c-49 -31 -62 -45 -30 -32 19 7 91 62 82 62 -3 0 -26 -14
-52 -30z"></path>
<path d="M6541 954 c6 -8 18 -14 26 -14 20 0 8 16 -17 23 -17 4 -19 3 -9 -9z"></path>
<path d="M4930 939 c0 -5 5 -7 10 -4 6 3 10 8 10 11 0 2 -4 4 -10 4 -5 0 -10
-5 -10 -11z"></path>
<path d="M5312 897 c-6 -7 -16 -26 -22 -41 -9 -25 -9 -27 4 -17 13 11 40 71
32 71 -2 0 -8 -6 -14 -13z"></path>
<path d="M5770 890 c0 -5 5 -10 10 -10 6 0 10 5 10 10 0 6 -4 10 -10 10 -5 0
-10 -4 -10 -10z"></path>
<path d="M4564 874 c-18 -14 -18 -15 4 -4 12 6 22 13 22 15 0 8 -5 6 -26 -11z"></path>
<path d="M4860 875 c-7 -9 -10 -18 -7 -22 8 -7 37 15 37 28 0 14 -16 11 -30
-6z"></path>
<path d="M5346 821 c-19 -81 -19 -81 -8 -81 5 0 14 26 21 58 7 31 15 65 17 75
3 9 1 17 -5 17 -5 0 -17 -31 -25 -69z"></path>
<path d="M5660 855 c0 -19 5 -35 10 -35 6 0 10 16 10 35 0 19 -4 35 -10 35 -5
0 -10 -16 -10 -35z"></path>
<path d="M4795 800 c-3 -5 -1 -10 4 -10 6 0 11 5 11 10 0 6 -2 10 -4 10 -3 0
-8 -4 -11 -10z"></path>
<path d="M5240 771 c-26 -37 -55 -105 -40 -96 15 9 76 125 65 125 -2 0 -13
-13 -25 -29z"></path>
<path d="M4720 725 c-8 -9 -8 -15 -2 -15 12 0 26 19 19 26 -2 2 -10 -2 -17
-11z"></path>
<path d="M5320 710 c0 -5 5 -10 10 -10 6 0 10 5 10 10 0 6 -4 10 -10 10 -5 0
-10 -4 -10 -10z"></path>
<path d="M5670 675 c0 -25 5 -45 10 -45 6 0 10 20 10 45 0 25 -4 45 -10 45 -5
0 -10 -20 -10 -45z"></path>
<path d="M5835 655 c3 -22 11 -44 17 -50 7 -7 8 2 3 30 -3 22 -11 45 -17 50
-7 7 -8 -2 -3 -30z"></path>
<path d="M5310 660 c0 -5 5 -10 10 -10 6 0 10 5 10 10 0 6 -4 10 -10 10 -5 0
-10 -4 -10 -10z"></path>
<path d="M5137 582 l-18 -37 25 30 c26 31 32 45 19 45 -5 0 -16 -17 -26 -38z"></path>
<path d="M5287 543 c-28 -127 -29 -133 -18 -133 6 0 11 2 11 4 0 5 27 139 35
174 3 12 1 22 -4 22 -5 0 -16 -30 -24 -67z"></path>
<path d="M5684 488 c3 -50 6 -111 6 -135 0 -23 5 -43 10 -43 12 0 13 50 4 178
-4 51 -11 92 -17 92 -6 0 -8 -33 -3 -92z"></path>
<path d="M5860 560 c0 -5 5 -10 10 -10 6 0 10 5 10 10 0 6 -4 10 -10 10 -5 0
-10 -4 -10 -10z"></path>
<path d="M5083 488 c-11 -14 -43 -78 -43 -86 0 -11 40 48 50 72 10 28 8 33 -7
14z"></path>
<path d="M5894 433 c3 -10 8 -30 12 -45 6 -29 24 -39 24 -14 0 24 -22 76 -32
76 -5 0 -7 -8 -4 -17z"></path>
<path d="M5250 375 c0 -8 5 -15 10 -15 6 0 10 7 10 15 0 8 -4 15 -10 15 -5 0
-10 -7 -10 -15z"></path>
<path d="M5240 330 c0 -5 5 -10 10 -10 6 0 10 5 10 10 0 6 -4 10 -10 10 -5 0
-10 -4 -10 -10z"></path>
<path d="M770 2290 c0 -5 5 -10 11 -10 5 0 7 5 4 10 -3 6 -8 10 -11 10 -2 0
-4 -4 -4 -10z"></path>
<path d="M1906 2283 c-6 -14 -5 -15 5 -6 7 7 10 15 7 18 -3 3 -9 -2 -12 -12z"></path>
<path d="M1852 2204 c-12 -18 -22 -37 -22 -41 0 -4 12 10 26 30 14 21 24 40
22 42 -2 2 -13 -12 -26 -31z"></path>
<path d="M1785 2104 c-9 -14 -15 -27 -13 -30 2 -2 12 10 22 26 21 37 15 40 -9
4z"></path>
<path d="M1725 2014 c-9 -14 -15 -27 -13 -30 2 -2 12 10 22 26 21 37 15 40 -9
4z"></path>
<path d="M1660 1927 c-27 -33 -43 -67 -32 -67 10 0 67 90 60 95 -2 1 -14 -11
-28 -28z"></path>
<path d="M1607 1844 c-4 -4 -7 -14 -7 -23 0 -11 3 -12 11 -4 6 6 10 16 7 23
-2 6 -7 8 -11 4z"></path>
<path d="M1270 1810 c0 -5 5 -10 10 -10 6 0 10 5 10 10 0 6 -4 10 -10 10 -5 0
-10 -4 -10 -10z"></path>
<path d="M1215 1800 c3 -5 8 -10 11 -10 2 0 4 5 4 10 0 6 -5 10 -11 10 -5 0
-7 -4 -4 -10z"></path>
<path d="M1537 1746 c-10 -22 -15 -41 -13 -43 9 -9 38 46 34 64 -3 13 -9 7
-21 -21z"></path>
<path d="M1280 1738 c0 -9 7 -24 16 -32 30 -31 33 -13 4 24 -15 19 -20 21 -20
8z"></path>
<path d="M1480 1661 c-12 -17 -17 -31 -11 -31 13 0 46 48 38 56 -2 3 -15 -9
-27 -25z"></path>
<path d="M1140 1530 c0 -5 9 -10 21 -10 11 0 17 5 14 10 -3 6 -13 10 -21 10
-8 0 -14 -4 -14 -10z"></path>
<path d="M1698 1238 c12 -12 25 -18 29 -14 4 4 -1 14 -11 22 -31 22 -43 17
-18 -8z"></path>
<path d="M1905 1190 c3 -5 10 -10 16 -10 5 0 9 5 9 10 0 6 -7 10 -16 10 -8 0
-12 -4 -9 -10z"></path>
<path d="M1080 975 c-19 -19 -29 -35 -24 -35 13 0 69 58 63 65 -3 2 -21 -11
-39 -30z"></path>
<path d="M1197 963 c-3 -16 -3 -30 -1 -33 7 -7 24 23 24 43 0 27 -17 20 -23
-10z"></path>
<path d="M1176 905 c-3 -8 -1 -15 4 -15 6 0 10 7 10 15 0 8 -2 15 -4 15 -2 0
-6 -7 -10 -15z"></path>
<path d="M980 875 c-13 -14 -19 -25 -13 -25 12 0 48 38 41 45 -2 3 -15 -6 -28
-20z"></path>
<path d="M1620 870 c0 -5 5 -10 11 -10 5 0 7 5 4 10 -3 6 -8 10 -11 10 -2 0
-4 -4 -4 -10z"></path>
<path d="M899 798 l-22 -33 31 29 c34 32 37 36 23 36 -5 0 -20 -15 -32 -32z"></path>
<path d="M1850 811 c0 -5 5 -13 10 -16 6 -3 10 -2 10 4 0 5 -4 13 -10 16 -5 3
-10 2 -10 -4z"></path>
<path d="M839 738 c-12 -23 -12 -23 10 -4 23 21 26 26 11 26 -5 0 -15 -10 -21
-22z"></path>
<path d="M1565 699 c-10 -15 1 -23 20 -15 9 3 13 10 10 16 -8 13 -22 13 -30
-1z"></path>
<path d="M1818 703 c-65 -2 -108 -8 -108 -14 0 -6 46 -9 124 -8 68 0 128 0
133 -2 20 -9 343 3 343 12 0 7 -63 10 -175 8 -97 -1 -179 1 -182 5 -4 3 -11 5
-17 4 -6 -1 -59 -4 -118 -5z"></path>
<path d="M1610 690 c0 -5 18 -10 40 -10 22 0 40 5 40 10 0 6 -18 10 -40 10
-22 0 -40 -4 -40 -10z"></path>
<path d="M775 680 c-3 -5 -2 -10 4 -10 5 0 13 5 16 10 3 6 2 10 -4 10 -5 0
-13 -4 -16 -10z"></path>
<path d="M725 630 c-3 -5 -1 -10 4 -10 6 0 11 5 11 10 0 6 -2 10 -4 10 -3 0
-8 -4 -11 -10z"></path>
<path d="M1070 470 c0 -5 5 -10 10 -10 6 0 10 5 10 10 0 6 -4 10 -10 10 -5 0
-10 -4 -10 -10z"></path>
<path d="M1050 390 c0 -5 5 -10 10 -10 6 0 10 5 10 10 0 6 -4 10 -10 10 -5 0
-10 -4 -10 -10z"></path>
<path d="M1226 1262 c-3 -6 -1 -14 5 -17 15 -10 25 3 12 16 -7 7 -13 7 -17 1z"></path>
<path d="M1252 1221 c2 -7 7 -12 11 -12 12 1 9 15 -3 20 -7 2 -11 -2 -8 -8z"></path>
<path d="M1243 1145 c-9 -20 -8 -25 3 -25 8 0 14 4 14 9 0 5 3 16 6 25 10 26
-10 18 -23 -9z"></path>
<path d="M5800 3340 c0 -5 5 -10 11 -10 5 0 7 5 4 10 -3 6 -8 10 -11 10 -2 0
-4 -4 -4 -10z"></path>
<path d="M5045 3004 c-6 -32 -1 -54 9 -43 9 11 16 79 8 79 -6 0 -13 -16 -17
-36z"></path>
<path d="M4250 2435 c-16 -19 -3 -40 16 -24 15 13 19 39 5 39 -5 0 -14 -7 -21
-15z"></path>
<path d="M2015 1830 c-3 -5 -1 -10 4 -10 6 0 11 5 11 10 0 6 -2 10 -4 10 -3 0
-8 -4 -11 -10z"></path>
<path d="M1900 1730 c-30 -27 -50 -49 -45 -49 6 0 35 22 65 49 30 28 51 50 45
50 -5 -1 -35 -23 -65 -50z"></path>
<path d="M2850 1746 c0 -9 5 -16 10 -16 6 0 10 4 10 9 0 6 -4 13 -10 16 -5 3
-10 -1 -10 -9z"></path>
<path d="M2869 1684 c-11 -14 -9 -19 11 -35 14 -10 36 -19 50 -18 22 0 23 1 9
12 -9 7 -21 22 -28 35 -14 26 -24 28 -42 6z"></path>
<path d="M1790 1635 c-13 -14 -19 -25 -13 -25 5 0 20 11 33 25 13 14 19 25 13
25 -5 0 -20 -11 -33 -25z"></path>
<path d="M1930 1610 c0 -5 4 -10 9 -10 6 0 13 5 16 10 3 6 -1 10 -9 10 -9 0
-16 -4 -16 -10z"></path>
<path d="M1715 1570 c-10 -11 -14 -20 -9 -20 12 1 44 25 44 34 0 12 -17 6 -35
-14z"></path>
<path d="M1640 1500 c0 -5 5 -10 10 -10 6 0 10 5 10 10 0 6 -4 10 -10 10 -5 0
-10 -4 -10 -10z"></path>
<path d="M1710 1490 c-31 -10 -27 -12 28 -15 42 -3 56 7 26 19 -18 7 -20 7
-54 -4z"></path>
<path d="M1803 1476 c4 -13 69 -14 74 0 2 5 -15 10 -37 10 -26 1 -39 -3 -37
-10z"></path>
<path d="M1905 1479 c-8 -12 5 -14 67 -14 32 0 58 5 58 10 0 12 -118 16 -125
4z"></path>
<path d="M2062 1481 c4 -13 18 -16 19 -4 0 4 -5 9 -11 12 -7 2 -11 -2 -8 -8z"></path>
<path d="M2113 1477 c5 -17 454 -14 470 2 9 9 -47 11 -231 10 -179 -1 -242 -4
-239 -12z"></path>
<path d="M3330 1470 c0 -5 5 -10 10 -10 6 0 10 5 10 10 0 6 -4 10 -10 10 -5 0
-10 -4 -10 -10z"></path>
<path d="M2815 1371 c-6 -11 9 -23 19 -14 9 9 7 23 -3 23 -6 0 -12 -4 -16 -9z"></path>
<path d="M3535 1260 c-7 -12 2 -30 16 -30 12 0 12 27 0 35 -5 3 -12 1 -16 -5z"></path>
<path d="M3550 1199 c0 -5 5 -7 10 -4 6 3 10 8 10 11 0 2 -4 4 -10 4 -5 0 -10
-5 -10 -11z"></path>
<path d="M3540 1000 c0 -5 5 -10 10 -10 6 0 10 5 10 10 0 6 -4 10 -10 10 -5 0
-10 -4 -10 -10z"></path>
<path d="M3390 789 c0 -5 5 -7 10 -4 6 3 10 8 10 11 0 2 -4 4 -10 4 -5 0 -10
-5 -10 -11z"></path>
</g>
</svg>